<?xml version="1.0" standalone="no"?>
<!DOCTYPE svg PUBLIC "-//W3C//DTD SVG 20010904//EN"
 "http://www.w3.org/TR/2001/REC-SVG-20010904/DTD/svg10.dtd">
<svg version="1.0" xmlns="http://www.w3.org/2000/svg"
 width="774.000000pt" height="760.000000pt" viewBox="0 0 774.000000 760.000000"
 preserveAspectRatio="xMidYMid meet">

<g transform="translate(0.000000,760.000000) scale(0.100000,-0.100000)"
fill="#000000" stroke="none">
<path d="M3625 7380 c-389 -32 -773 -127 -1132 -281 -261 -111 -595 -314 -833
-506 -406 -326 -748 -749 -970 -1198 -168 -339 -258 -620 -324 -1005 -107
-633 -43 -1280 189 -1890 108 -285 218 -499 380 -740 384 -572 871 -977 1534
-1275 259 -116 615 -214 953 -262 180 -25 717 -25 913 0 835 109 1616 497
2133 1058 527 574 853 1253 972 2027 69 448 44 877 -81 1374 -77 307 -204 619
-374 913 -255 442 -670 881 -1120 1182 -360 240 -780 423 -1186 517 -307 71
-774 109 -1054 86z m670 -314 c455 -61 887 -211 1264 -439 870 -527 1455
-1416 1591 -2422 21 -155 24 -544 6 -725 -45 -434 -161 -832 -355 -1215 -245
-482 -571 -870 -974 -1159 -335 -241 -703 -410 -1107 -511 -245 -60 -433 -84
-730 -92 -691 -18 -1261 126 -1810 456 -808 486 -1365 1328 -1529 2311 -61
366 -55 797 15 1150 180 900 733 1700 1509 2183 421 261 864 418 1335 472 160
18 626 13 785 -9z"/>
<path d="M3836 6915 c-53 -53 -72 -131 -95 -395 -29 -321 -39 -489 -56 -880
-34 -801 -35 -787 32 -777 82 14 398 120 416 139 13 16 16 32 12 67 -3 25 -10
170 -15 321 -30 798 -86 1366 -145 1481 -19 35 -72 79 -95 79 -11 0 -35 -16
-54 -35z m78 -730 c-4 -110 -10 -206 -14 -214 -16 -30 -22 167 -9 333 18 229
31 160 23 -119z"/>
<path d="M3385 5994 c-762 -103 -1289 -419 -1485 -891 -43 -102 -61 -201 -61
-333 -1 -211 63 -395 201 -578 58 -77 152 -172 171 -172 18 0 7 -22 -55 -113
-74 -106 -131 -216 -158 -302 -28 -88 -35 -244 -14 -325 102 -400 531 -616
1186 -597 102 3 244 13 315 21 72 9 260 22 419 31 313 16 328 19 348 75 9 26
17 30 101 50 242 56 536 160 760 269 255 124 441 251 601 409 203 201 276 380
212 517 -90 195 -406 227 -896 92 -47 -13 -141 -41 -210 -61 -109 -33 -265
-77 -407 -115 -56 -15 -67 -37 -53 -106 6 -29 18 -59 26 -66 17 -14 36 -9 454
116 379 113 496 138 670 139 146 1 207 -11 240 -46 85 -92 -102 -342 -408
-544 -194 -129 -475 -266 -717 -350 -55 -20 -172 -53 -260 -75 -131 -33 -189
-42 -320 -50 -88 -5 -216 -13 -284 -18 l-124 -7 -31 -37 c-37 -43 -37 -43
-244 -62 -371 -34 -674 -3 -871 90 -173 82 -273 184 -321 324 -35 104 -22 238
34 366 31 70 151 254 170 261 8 3 49 -12 92 -34 121 -61 298 -128 409 -156
181 -45 515 -86 545 -67 9 7 16 33 18 79 5 86 4 87 -133 97 -150 10 -298 32
-402 60 -141 37 -384 132 -398 155 -6 10 76 78 175 145 99 66 313 179 425 225
111 45 457 160 481 160 13 0 15 -7 11 -32 -31 -174 -34 -1214 -5 -1314 20 -68
43 -100 80 -113 19 -7 121 -11 254 -11 273 0 266 -3 291 130 24 133 24 789 -1
1160 -11 157 -20 298 -20 315 -1 29 2 31 119 75 367 141 565 306 620 515 66
254 -98 497 -410 608 -79 28 -250 67 -294 67 -34 0 -41 -14 -41 -78 0 -82 12
-94 120 -117 125 -28 190 -50 273 -93 127 -65 206 -188 193 -300 -20 -175
-184 -313 -529 -443 -163 -62 -309 -107 -512 -158 -177 -45 -442 -122 -580
-171 -112 -39 -411 -184 -508 -246 -94 -60 -287 -205 -287 -216 0 -23 -34 -1
-96 65 -107 110 -181 232 -220 363 -29 93 -26 296 4 394 63 199 181 358 372
500 192 141 489 258 780 304 85 14 347 46 377 46 6 0 19 7 27 16 20 19 22 144
4 162 -15 15 -92 13 -223 -4z"/>
<path d="M3698 2620 c-41 -8 -113 -63 -152 -117 -43 -58 -120 -212 -136 -271
-53 -204 -23 -390 114 -693 74 -161 102 -254 116 -377 10 -95 5 -207 -16 -325
-6 -36 -6 -37 22 -37 74 1 193 71 312 184 130 123 228 258 317 435 179 358
192 667 40 973 -59 119 -108 184 -159 210 -38 20 -57 22 -237 22 -107 1 -207
-1 -221 -4z"/>
</g>
</svg>
